<svg xmlns="http://www.w3.org/2000/svg" xmlns:xlink="http://www.w3.org/1999/xlink" width="1224" zoomAndPan="magnify" viewBox="0 0 918 375.749991" height="501" preserveAspectRatio="xMidYMid meet" version="1.0"><defs><clipPath id="6a701c26b7"><path d="M 4 17 L 911 17 L 911 366 L 4 366 Z M 4 17 " clip-rule="nonzero"/></clipPath><clipPath id="23f49bfc35"><path d="M 16.589844 0 L 917.148438 44.292969 L 900.875 375.171875 L 0.3125 330.878906 Z M 16.589844 0 " clip-rule="nonzero"/></clipPath><clipPath id="bfeb66e862"><path d="M 16.589844 0 L 917.148438 44.292969 L 900.875 375.171875 L 0.3125 330.878906 Z M 16.589844 0 " clip-rule="nonzero"/></clipPath><clipPath id="8455d7ee3f"><path d="M 17 28 L 896 28 L 896 353 L 17 353 Z M 17 28 " clip-rule="nonzero"/></clipPath><clipPath id="31bc4bb6d9"><path d="M 16.589844 0 L 917.148438 44.292969 L 900.875 375.171875 L 0.3125 330.878906 Z M 16.589844 0 " clip-rule="nonzero"/></clipPath><clipPath id="23cafeeaa9"><path d="M 16.589844 0 L 917.148438 44.292969 L 900.875 375.171875 L 0.3125 330.878906 Z M 16.589844 0 " clip-rule="nonzero"/></clipPath><clipPath id="c1bcc68958"><path d="M 120 282 L 835 282 L 835 322 L 120 322 Z M 120 282 " clip-rule="nonzero"/></clipPath><clipPath id="df8f440dff"><path d="M 16.589844 0 L 917.148438 44.292969 L 900.875 375.171875 L 0.3125 330.878906 Z M 16.589844 0 " clip-rule="nonzero"/></clipPath><clipPath id="d35dd046e2"><path d="M 16.589844 0 L 917.148438 44.292969 L 900.875 375.171875 L 0.3125 330.878906 Z M 16.589844 0 " clip-rule="nonzero"/></clipPath><clipPath id="045282f8aa"><path d="M 35 245 L 877 245 L 877 291 L 35 291 Z M 35 245 " clip-rule="nonzero"/></clipPath><clipPath id="cd140bf8d0"><path d="M 16.589844 0 L 917.148438 44.292969 L 900.875 375.171875 L 0.3125 330.878906 Z M 16.589844 0 " clip-rule="nonzero"/></clipPath><clipPath id="c25c54d8fa"><path d="M 16.589844 0 L 917.148438 44.292969 L 900.875 375.171875 L 0.3125 330.878906 Z M 16.589844 0 " clip-rule="nonzero"/></clipPath><clipPath id="c54f133d0e"><path d="M 31 212 L 888 212 L 888 259 L 31 259 Z M 31 212 " clip-rule="nonzero"/></clipPath><clipPath id="5a865ab3b8"><path d="M 16.589844 0 L 917.148438 44.292969 L 900.875 375.171875 L 0.3125 330.878906 Z M 16.589844 0 " clip-rule="nonzero"/></clipPath><clipPath id="837621c438"><path d="M 16.589844 0 L 917.148438 44.292969 L 900.875 375.171875 L 0.3125 330.878906 Z M 16.589844 0 " clip-rule="nonzero"/></clipPath><clipPath id="fc54a5c2be"><path d="M 31 179 L 887 179 L 887 226 L 31 226 Z M 31 179 " clip-rule="nonzero"/></clipPath><clipPath id="5a6b4490af"><path d="M 16.589844 0 L 917.148438 44.292969 L 900.875 375.171875 L 0.3125 330.878906 Z M 16.589844 0 " clip-rule="nonzero"/></clipPath><clipPath id="4935fbc8c7"><path d="M 16.589844 0 L 917.148438 44.292969 L 900.875 375.171875 L 0.3125 330.878906 Z M 16.589844 0 " clip-rule="nonzero"/></clipPath><clipPath id="a0709eff46"><path d="M 24 147 L 896 147 L 896 194 L 24 194 Z M 24 147 " clip-rule="nonzero"/></clipPath><clipPath id="0431e7ae23"><path d="M 16.589844 0 L 917.148438 44.292969 L 900.875 375.171875 L 0.3125 330.878906 Z M 16.589844 0 " clip-rule="nonzero"/></clipPath><clipPath id="bf5ee1338d"><path d="M 16.589844 0 L 917.148438 44.292969 L 900.875 375.171875 L 0.3125 330.878906 Z M 16.589844 0 " clip-rule="nonzero"/></clipPath><clipPath id="4632b50693"><path d="M 32 114 L 896 114 L 896 162 L 32 162 Z M 32 114 " clip-rule="nonzero"/></clipPath><clipPath id="8e3c4fc2cf"><path d="M 16.589844 0 L 917.148438 44.292969 L 900.875 375.171875 L 0.3125 330.878906 Z M 16.589844 0 " clip-rule="nonzero"/></clipPath><clipPath id="a53e4e75a3"><path d="M 16.589844 0 L 917.148438 44.292969 L 900.875 375.171875 L 0.3125 330.878906 Z M 16.589844 0 " clip-rule="nonzero"/></clipPath><clipPath id="8998d6b797"><path d="M 38 82 L 880 82 L 880 128 L 38 128 Z M 38 82 " clip-rule="nonzero"/></clipPath><clipPath id="6dddc5c7db"><path d="M 16.589844 0 L 917.148438 44.292969 L 900.875 375.171875 L 0.3125 330.878906 Z M 16.589844 0 " clip-rule="nonzero"/></clipPath><clipPath id="982c04f4e1"><path d="M 16.589844 0 L 917.148438 44.292969 L 900.875 375.171875 L 0.3125 330.878906 Z M 16.589844 0 " clip-rule="nonzero"/></clipPath><clipPath id="9b4fed8b34"><path d="M 91 52 L 852 52 L 852 94 L 91 94 Z M 91 52 " clip-rule="nonzero"/></clipPath><clipPath id="741dc45163"><path d="M 16.589844 0 L 917.148438 44.292969 L 900.875 375.171875 L 0.3125 330.878906 Z M 16.589844 0 " clip-rule="nonzero"/></clipPath><clipPath id="257be75ef7"><path d="M 16.589844 0 L 917.148438 44.292969 L 900.875 375.171875 L 0.3125 330.878906 Z M 16.589844 0 " clip-rule="nonzero"/></clipPath><clipPath id="fc313938dd"><path d="M 4 17 L 911 17 L 911 366 L 4 366 Z M 4 17 " clip-rule="nonzero"/></clipPath><clipPath id="daf7f964d9"><path d="M 16.589844 0 L 917.148438 44.292969 L 900.875 375.171875 L 0.3125 330.878906 Z M 16.589844 0 " clip-rule="nonzero"/></clipPath><clipPath id="f5880c3758"><path d="M 16.589844 0 L 917.148438 44.292969 L 900.875 375.171875 L 0.3125 330.878906 Z M 16.589844 0 " clip-rule="nonzero"/></clipPath><clipPath id="6ea8679d70"><path d="M 17 28 L 896 28 L 896 353 L 17 353 Z M 17 28 " clip-rule="nonzero"/></clipPath><clipPath id="83351d6582"><path d="M 16.589844 0 L 917.148438 44.292969 L 900.875 375.171875 L 0.3125 330.878906 Z M 16.589844 0 " clip-rule="nonzero"/></clipPath><clipPath id="4f098273a3"><path d="M 16.589844 0 L 917.148438 44.292969 L 900.875 375.171875 L 0.3125 330.878906 Z M 16.589844 0 " clip-rule="nonzero"/></clipPath><clipPath id="6337a458d9"><path d="M 120 282 L 835 282 L 835 322 L 120 322 Z M 120 282 " clip-rule="nonzero"/></clipPath><clipPath id="0a7db9da6d"><path d="M 16.589844 0 L 917.148438 44.292969 L 900.875 375.171875 L 0.3125 330.878906 Z M 16.589844 0 " clip-rule="nonzero"/></clipPath><clipPath id="e3d52d90dc"><path d="M 16.589844 0 L 917.148438 44.292969 L 900.875 375.171875 L 0.3125 330.878906 Z M 16.589844 0 " clip-rule="nonzero"/></clipPath><clipPath id="0934640c14"><path d="M 35 245 L 877 245 L 877 291 L 35 291 Z M 35 245 " clip-rule="nonzero"/></clipPath><clipPath id="84d287f567"><path d="M 16.589844 0 L 917.148438 44.292969 L 900.875 375.171875 L 0.3125 330.878906 Z M 16.589844 0 " clip-rule="nonzero"/></clipPath><clipPath id="9013420cd3"><path d="M 16.589844 0 L 917.148438 44.292969 L 900.875 375.171875 L 0.3125 330.878906 Z M 16.589844 0 " clip-rule="nonzero"/></clipPath><clipPath id="b8bc6bf34c"><path d="M 31 212 L 888 212 L 888 259 L 31 259 Z M 31 212 " clip-rule="nonzero"/></clipPath><clipPath id="ac70e4e0dd"><path d="M 16.589844 0 L 917.148438 44.292969 L 900.875 375.171875 L 0.3125 330.878906 Z M 16.589844 0 " clip-rule="nonzero"/></clipPath><clipPath id="83a254871b"><path d="M 16.589844 0 L 917.148438 44.292969 L 900.875 375.171875 L 0.3125 330.878906 Z M 16.589844 0 " clip-rule="nonzero"/></clipPath><clipPath id="74d76645b4"><path d="M 31 179 L 887 179 L 887 226 L 31 226 Z M 31 179 " clip-rule="nonzero"/></clipPath><clipPath id="39cae7f580"><path d="M 16.589844 0 L 917.148438 44.292969 L 900.875 375.171875 L 0.3125 330.878906 Z M 16.589844 0 " clip-rule="nonzero"/></clipPath><clipPath id="3573eacb43"><path d="M 16.589844 0 L 917.148438 44.292969 L 900.875 375.171875 L 0.3125 330.878906 Z M 16.589844 0 " clip-rule="nonzero"/></clipPath><clipPath id="f073fa1084"><path d="M 24 147 L 896 147 L 896 194 L 24 194 Z M 24 147 " clip-rule="nonzero"/></clipPath><clipPath id="21ae2595b3"><path d="M 16.589844 0 L 917.148438 44.292969 L 900.875 375.171875 L 0.3125 330.878906 Z M 16.589844 0 " clip-rule="nonzero"/></clipPath><clipPath id="9aeac89a7b"><path d="M 16.589844 0 L 917.148438 44.292969 L 900.875 375.171875 L 0.3125 330.878906 Z M 16.589844 0 " clip-rule="nonzero"/></clipPath><clipPath id="b9fb6347f6"><path d="M 32 114 L 896 114 L 896 162 L 32 162 Z M 32 114 " clip-rule="nonzero"/></clipPath><clipPath id="3d69da23db"><path d="M 16.589844 0 L 917.148438 44.292969 L 900.875 375.171875 L 0.3125 330.878906 Z M 16.589844 0 " clip-rule="nonzero"/></clipPath><clipPath id="55ae598bfb"><path d="M 16.589844 0 L 917.148438 44.292969 L 900.875 375.171875 L 0.3125 330.878906 Z M 16.589844 0 " clip-rule="nonzero"/></clipPath><clipPath id="d385c6e661"><path d="M 38 82 L 880 82 L 880 128 L 38 128 Z M 38 82 " clip-rule="nonzero"/></clipPath><clipPath id="c3ec451bbd"><path d="M 16.589844 0 L 917.148438 44.292969 L 900.875 375.171875 L 0.3125 330.878906 Z M 16.589844 0 " clip-rule="nonzero"/></clipPath><clipPath id="1a60b91845"><path d="M 16.589844 0 L 917.148438 44.292969 L 900.875 375.171875 L 0.3125 330.878906 Z M 16.589844 0 " clip-rule="nonzero"/></clipPath><clipPath id="39894f1297"><path d="M 91 52 L 852 52 L 852 94 L 91 94 Z M 91 52 " clip-rule="nonzero"/></clipPath><clipPath id="26ed2ebd88"><path d="M 16.589844 0 L 917.148438 44.292969 L 900.875 375.171875 L 0.3125 330.878906 Z M 16.589844 0 " clip-rule="nonzero"/></clipPath><clipPath id="67b17a64d5"><path d="M 16.589844 0 L 917.148438 44.292969 L 900.875 375.171875 L 0.3125 330.878906 Z M 16.589844 0 " clip-rule="nonzero"/></clipPath></defs><g clip-path="url(#6a701c26b7)"><g clip-path="url(#23f49bfc35)"><g clip-path="url(#bfeb66e862)"><path fill="#ffffff" d="M 56.035156 60.5625 C 82.273438 50.675781 82.460938 50.503906 91.277344 34.316406 L 109.136719 42.734375 C 135.734375 19.464844 142.171875 32.539062 157.03125 46.429688 C 166.082031 34.175781 170.039062 30.585938 182.964844 45.457031 C 192.253906 56.132812 194.433594 12.472656 218.121094 32.582031 C 222.359375 36.179688 227.324219 38.769531 231.660156 42.234375 C 238.734375 47.882812 234.09375 37.757812 244.714844 18.15625 C 252.984375 26.609375 254.152344 24.683594 264.136719 17.988281 C 267.300781 15.871094 285.769531 36.699219 287.429688 38.570312 C 290.769531 37.453125 318.042969 28.316406 331.144531 37.015625 C 334.9375 39.53125 334.363281 36.773438 343.535156 26.390625 C 343.777344 26.121094 409.046875 37.699219 428.925781 22.722656 C 430.171875 21.78125 432.28125 20.191406 445.699219 32.539062 C 453.339844 39.570312 452.875 39.152344 461.175781 44.917969 L 466.6875 22.335938 L 480.320312 52.21875 L 488.898438 29.34375 L 504.871094 63.699219 L 511.675781 47.019531 L 526.789062 62.617188 C 543.4375 61.414062 543.003906 61.269531 557.324219 52.335938 C 570.496094 59.140625 571.96875 62.949219 582.757812 52.761719 C 592.460938 43.605469 584.371094 64.761719 597.105469 68.074219 C 602.726562 69.539062 601.476562 66.222656 610.953125 49.652344 C 622.523438 66.351562 621.0625 69.417969 627.34375 67.316406 C 627.34375 67.316406 644.984375 51.644531 646.519531 50.28125 C 653.632812 62.710938 654.382812 63.539062 668.613281 61.480469 C 681.160156 59.664062 703.53125 91.867188 720.183594 87.609375 C 727.699219 85.6875 734.417969 80.140625 742.144531 79.703125 C 746.796875 79.4375 750.238281 85.910156 754.90625 85.648438 L 778.746094 75.769531 C 795.285156 83.9375 794.273438 87.0625 812.027344 84.261719 C 812.867188 84.664062 822.566406 89.277344 822.566406 89.277344 C 824.292969 87.535156 840.574219 71.058594 847.175781 71.382812 C 858.542969 71.945312 847.46875 76.191406 842.101562 86.867188 C 861.886719 85.042969 861.058594 87.386719 880.601562 90.054688 C 880.691406 92.113281 881.1875 103.394531 882.355469 115.703125 L 894.601562 119.050781 C 889.207031 138.777344 900.0625 133.445312 907.449219 136.394531 L 890.417969 159.328125 L 910.503906 158.570312 C 903.195312 186.628906 900.265625 188.304688 904.972656 189.960938 C 906.671875 190.558594 910.449219 188.355469 910.359375 190.222656 C 910.214844 193.117188 908.296875 191.703125 881.675781 210.789062 C 886.171875 213.753906 892.808594 211.335938 897.304688 214.300781 C 914.359375 225.539062 891.839844 224.613281 882.316406 242.535156 C 897.894531 250.269531 903.191406 248.191406 902.304688 266.234375 C 888.289062 272.683594 875.34375 270.863281 886.414062 282.308594 C 901.460938 297.871094 880.695312 296.167969 876.320312 312.148438 C 873.9375 320.832031 850.0625 326.164062 847.558594 326.722656 C 845.203125 333.988281 853.355469 351.277344 828.503906 341.257812 C 804.707031 331.65625 804.863281 346.582031 799.238281 344.3125 C 725.773438 314.683594 717.578125 386.035156 703.554688 359.832031 C 702.683594 358.203125 694.691406 347.140625 693.453125 345.851562 C 692.46875 344.8125 692.15625 345.824219 675.808594 345.5 C 674.335938 343.976562 655.089844 324.0625 651.941406 334.820312 C 650.894531 338.394531 648.15625 327.46875 607.433594 340.496094 C 595.078125 324.6875 590.746094 336.050781 572.429688 328.664062 C 547.003906 318.40625 546.582031 356.855469 525.5 339.835938 C 488.316406 309.820312 479.726562 318.671875 476.777344 321.710938 C 466.925781 331.855469 466.429688 322.210938 451.511719 309.546875 C 417.941406 336.34375 415.453125 310.675781 374.082031 304.300781 C 325.929688 296.875 326.054688 310.164062 321.941406 311.847656 C 290.339844 295.832031 289.40625 302.382812 253.46875 300.617188 C 249.074219 300.398438 246.957031 308.023438 244.640625 304.675781 C 221.070312 270.644531 176.992188 302.777344 157.292969 282.402344 C 151.800781 276.71875 105.382812 314.210938 102.636719 275.21875 C 100.847656 249.800781 71.632812 277.113281 69.894531 261.25 C 69.488281 257.542969 59.496094 279.070312 54.113281 275.078125 C 11.386719 243.457031 11.847656 243.289062 4.859375 239.347656 C 9.488281 236.121094 16.816406 240.746094 21.449219 237.519531 C 24.183594 235.605469 12.792969 233.515625 24.140625 194.75 C 13.9375 176.945312 22.773438 173.621094 10.300781 157.191406 C 4.964844 150.171875 25.410156 145.703125 22.902344 142.082031 C 16.996094 133.558594 10.484375 129.777344 20.394531 127.351562 C 32.410156 124.410156 8.511719 106.523438 26.132812 98.417969 C 35.320312 94.195312 7.5625 44.535156 48.636719 58.757812 C 52.46875 60.082031 55.585938 63.285156 59.515625 64.242188 C 61.121094 64.636719 54.417969 60.171875 56.035156 60.5625 Z M 56.035156 60.5625 " fill-opacity="1" fill-rule="evenodd"/></g></g></g><g clip-path="url(#8455d7ee3f)"><g clip-path="url(#31bc4bb6d9)"><g clip-path="url(#23cafeeaa9)"><path fill="#ffe5e5" d="M 67.253906 67.449219 C 92.660156 58.300781 92.839844 58.140625 101.351562 43.097656 L 118.675781 50.960938 C 144.410156 29.363281 150.675781 41.539062 165.097656 54.492188 C 173.84375 43.109375 177.675781 39.777344 190.226562 53.636719 C 199.25 63.589844 201.28125 22.96875 224.273438 41.722656 C 228.386719 45.082031 233.207031 47.5 237.414062 50.730469 C 244.28125 56 239.765625 46.570312 250.019531 28.355469 C 258.046875 36.234375 259.175781 34.445312 268.839844 28.234375 C 271.902344 26.269531 289.839844 45.6875 291.453125 47.429688 C 294.6875 46.394531 321.097656 37.945312 333.8125 46.066406 C 337.496094 48.414062 336.933594 45.84375 345.800781 36.203125 C 346.03125 35.953125 409.308594 46.847656 428.546875 32.953125 C 429.75 32.078125 431.792969 30.605469 444.820312 42.117188 C 452.234375 48.675781 451.785156 48.285156 459.839844 53.664062 L 465.140625 32.664062 L 478.40625 60.492188 L 486.675781 39.230469 L 502.222656 71.222656 L 508.785156 55.714844 L 523.457031 70.261719 C 539.589844 69.171875 539.171875 69.035156 553.03125 60.753906 C 565.808594 67.109375 567.242188 70.652344 577.679688 61.195312 C 587.0625 52.695312 579.265625 72.363281 591.613281 75.472656 C 597.0625 76.84375 595.84375 73.757812 604.996094 58.359375 C 616.238281 73.917969 614.832031 76.765625 620.914062 74.820312 C 620.914062 74.820312 637.980469 60.273438 639.464844 59.007812 C 646.382812 70.589844 647.113281 71.359375 660.898438 69.46875 C 673.050781 67.804688 694.792969 97.808594 710.921875 93.882812 C 718.199219 92.109375 724.703125 86.957031 732.1875 86.566406 C 736.699219 86.328125 740.046875 92.359375 744.570312 92.121094 L 767.652344 82.976562 C 783.695312 90.609375 782.722656 93.511719 799.921875 90.941406 C 800.738281 91.316406 810.144531 95.625 810.144531 95.625 C 811.8125 94.007812 827.5625 78.710938 833.960938 79.027344 C 844.976562 79.570312 834.253906 83.5 829.070312 93.421875 C 848.242188 91.761719 847.445312 93.941406 866.386719 96.464844 C 866.480469 98.375 866.980469 108.875 868.136719 120.328125 L 880.011719 123.464844 C 874.816406 141.808594 885.328125 136.871094 892.492188 139.628906 L 876.035156 160.9375 L 895.496094 160.265625 C 888.464844 186.359375 885.628906 187.914062 890.195312 189.460938 C 891.84375 190.023438 895.5 187.980469 895.414062 189.71875 C 895.28125 192.410156 893.421875 191.09375 867.660156 208.796875 C 872.023438 211.566406 878.449219 209.328125 882.808594 212.097656 C 899.359375 222.585938 877.535156 221.683594 868.339844 238.339844 C 883.453125 245.5625 888.582031 243.636719 887.757812 260.425781 C 874.183594 266.398438 861.636719 264.679688 872.386719 275.351562 C 887 289.859375 866.871094 288.234375 862.660156 303.09375 C 860.371094 311.171875 837.242188 316.085938 834.816406 316.601562 C 832.546875 323.359375 840.480469 339.460938 816.378906 330.089844 C 793.296875 321.113281 793.480469 335 788.023438 332.875 C 716.773438 305.167969 708.96875 371.539062 695.324219 347.132812 C 694.480469 345.613281 686.710938 335.308594 685.511719 334.105469 C 684.554688 333.136719 684.253906 334.078125 668.414062 333.746094 C 666.980469 332.324219 648.292969 313.757812 645.261719 323.761719 C 644.253906 327.085938 641.582031 316.917969 602.140625 328.960938 C 590.136719 314.226562 585.960938 324.789062 568.195312 317.882812 C 543.539062 308.292969 543.199219 344.066406 522.738281 328.191406 C 486.648438 300.191406 478.339844 308.40625 475.488281 311.230469 C 465.960938 320.652344 465.460938 311.675781 450.980469 299.867188 C 418.496094 324.734375 416.039062 300.847656 375.933594 294.835938 C 329.253906 287.835938 329.402344 300.203125 325.417969 301.761719 C 294.761719 286.796875 293.871094 292.890625 259.039062 291.179688 C 254.78125 290.96875 252.746094 298.058594 250.492188 294.9375 C 227.585938 263.230469 184.933594 293.042969 165.804688 274.046875 C 160.46875 268.75 115.558594 303.542969 112.820312 267.261719 C 111.039062 243.609375 82.777344 268.964844 81.0625 254.199219 C 80.664062 250.753906 71.023438 270.761719 65.800781 267.039062 C 24.332031 237.535156 24.777344 237.378906 17.996094 233.695312 C 22.480469 230.703125 29.589844 235.019531 34.070312 232.027344 C 36.71875 230.253906 25.671875 228.285156 36.597656 192.238281 C 26.675781 175.65625 35.234375 172.582031 23.113281 157.269531 C 17.929688 150.726562 37.734375 146.609375 35.296875 143.234375 C 29.558594 135.292969 23.242188 131.761719 32.839844 129.523438 C 44.476562 126.808594 21.285156 110.121094 38.34375 102.617188 C 47.238281 98.703125 20.246094 52.445312 60.078125 65.757812 C 63.792969 66.996094 66.820312 69.980469 70.628906 70.882812 C 72.1875 71.25 65.683594 67.082031 67.253906 67.449219 Z M 67.253906 67.449219 " fill-opacity="1" fill-rule="evenodd"/></g></g></g><g clip-path="url(#c1bcc68958)"><g clip-path="url(#df8f440dff)"><g clip-path="url(#d35dd046e2)"><path fill="#f45999" d="M 454.28125 302.71875 C 453.269531 301.792969 452.167969 300.839844 450.976562 299.867188 C 449.796875 300.769531 448.65625 301.609375 447.550781 302.386719 L 395.390625 299.824219 C 389.980469 297.816406 383.65625 295.992188 375.933594 294.839844 C 375.769531 294.8125 375.605469 294.789062 375.441406 294.765625 L 834.609375 317.347656 C 834.351562 318.539062 834.320312 319.945312 834.339844 321.410156 Z M 343.027344 293.171875 C 337.3125 293.855469 333.773438 295.222656 331.410156 296.675781 L 311.78125 295.710938 C 293.421875 288.683594 287.808594 292.59375 259.039062 291.179688 C 257.523438 291.105469 256.296875 291.949219 255.234375 292.929688 L 248.679688 292.605469 C 247.335938 291 245.933594 289.582031 244.488281 288.324219 Z M 135.679688 282.972656 C 129.875 284.34375 124.308594 284.597656 120.109375 282.207031 Z M 135.679688 282.972656 " fill-opacity="0.29" fill-rule="evenodd"/></g></g></g><g clip-path="url(#045282f8aa)"><g clip-path="url(#cd140bf8d0)"><g clip-path="url(#c25c54d8fa)"><path fill="#f45999" d="M 41.574219 249.75 C 39.402344 248.195312 37.375 246.742188 35.464844 245.375 L 876.730469 286.75 C 875.839844 288.101562 874.375 289.3125 872.695312 290.628906 Z M 41.574219 249.75 " fill-opacity="0.29" fill-rule="evenodd"/></g></g></g><g clip-path="url(#c54f133d0e)"><g clip-path="url(#5a865ab3b8)"><g clip-path="url(#837621c438)"><path fill="#f45999" d="M 31.71875 216.652344 C 31.777344 215.410156 31.886719 214.0625 32.050781 212.59375 L 887.757812 254.679688 C 887.835938 255.886719 887.855469 257.238281 887.816406 258.761719 Z M 31.71875 216.652344 " fill-opacity="0.29" fill-rule="evenodd"/></g></g></g><g clip-path="url(#fc54a5c2be)"><g clip-path="url(#5a6b4490af)"><g clip-path="url(#4935fbc8c7)"><path fill="#f45999" d="M 32.6875 184.121094 C 32.167969 182.636719 31.808594 181.273438 31.539062 179.988281 L 886.410156 222.035156 C 884.957031 223.179688 882.972656 224.382812 880.785156 225.835938 Z M 32.6875 184.121094 " fill-opacity="0.29" fill-rule="evenodd"/></g></g></g><g clip-path="url(#a0709eff46)"><g clip-path="url(#0431e7ae23)"><g clip-path="url(#bf5ee1338d)"><path fill="#f45999" d="M 24.886719 151.175781 C 26.6875 149.796875 29.113281 148.550781 31.191406 147.410156 L 895.394531 189.914062 C 895.285156 191.132812 894.632812 191.539062 890.90625 193.769531 Z M 24.886719 151.175781 " fill-opacity="0.29" fill-rule="evenodd"/></g></g></g><g clip-path="url(#4632b50693)"><g clip-path="url(#8e3c4fc2cf)"><g clip-path="url(#a53e4e75a3)"><path fill="#f45999" d="M 34.019531 118.988281 C 33.449219 117.640625 32.882812 116.238281 32.46875 114.835938 L 879.460938 156.492188 L 876.429688 160.421875 Z M 895.199219 161.34375 L 882.449219 160.71875 L 895.492188 160.269531 C 895.390625 160.632812 895.296875 160.992188 895.199219 161.34375 Z M 895.199219 161.34375 " fill-opacity="0.29" fill-rule="evenodd"/></g></g></g><g clip-path="url(#8998d6b797)"><g clip-path="url(#6dddc5c7db)"><g clip-path="url(#982c04f4e1)"><path fill="#f45999" d="M 38.769531 86.597656 C 38.539062 85.242188 38.3125 83.863281 38.117188 82.488281 L 879.894531 123.890625 C 879.480469 125.386719 879.175781 126.726562 878.96875 127.921875 Z M 38.769531 86.597656 " fill-opacity="0.29" fill-rule="evenodd"/></g></g></g><g clip-path="url(#9b4fed8b34)"><g clip-path="url(#741dc45163)"><g clip-path="url(#257be75ef7)"><path fill="#f45999" d="M 91.816406 56.582031 C 93.183594 55.453125 94.34375 54.195312 95.476562 52.6875 L 683.191406 81.59375 C 685.125 83.070312 687.089844 84.554688 689.0625 85.957031 Z M 773.753906 86.046875 C 777.601562 88.078125 780.191406 89.59375 782.738281 90.566406 L 752.277344 89.066406 L 761.433594 85.441406 Z M 797.464844 91.289062 C 798.242188 91.1875 799.054688 91.074219 799.917969 90.945312 L 801.054688 91.464844 Z M 813.894531 92.097656 C 815.167969 90.941406 816.671875 89.605469 818.292969 88.238281 L 832.023438 88.914062 C 831.085938 90.101562 830.167969 91.414062 829.371094 92.859375 Z M 833.695312 93.070312 C 842.179688 92.535156 846.011719 92.996094 851.15625 93.929688 Z M 736.933594 88.3125 L 726.238281 87.785156 C 728.175781 87.136719 730.144531 86.675781 732.183594 86.570312 C 733.894531 86.480469 735.433594 87.285156 736.933594 88.3125 Z M 736.933594 88.3125 " fill-opacity="0.29" fill-rule="evenodd"/></g></g></g><g clip-path="url(#fc313938dd)"><g clip-path="url(#daf7f964d9)"><g clip-path="url(#f5880c3758)"><path fill="#ffffff" d="M 56.035156 60.5625 C 82.273438 50.675781 82.460938 50.503906 91.277344 34.316406 L 109.136719 42.734375 C 135.734375 19.464844 142.171875 32.539062 157.03125 46.429688 C 166.082031 34.175781 170.039062 30.585938 182.964844 45.457031 C 192.253906 56.132812 194.433594 12.472656 218.121094 32.582031 C 222.359375 36.179688 227.324219 38.769531 231.660156 42.234375 C 238.734375 47.882812 234.09375 37.757812 244.714844 18.15625 C 252.984375 26.609375 254.152344 24.683594 264.136719 17.988281 C 267.300781 15.871094 285.769531 36.699219 287.429688 38.570312 C 290.769531 37.453125 318.042969 28.316406 331.144531 37.015625 C 334.9375 39.53125 334.363281 36.773438 343.535156 26.390625 C 343.777344 26.121094 409.046875 37.699219 428.925781 22.722656 C 430.171875 21.78125 432.28125 20.191406 445.699219 32.539062 C 453.339844 39.570312 452.875 39.152344 461.175781 44.917969 L 466.6875 22.335938 L 480.320312 52.21875 L 488.898438 29.34375 L 504.871094 63.699219 L 511.675781 47.019531 L 526.789062 62.617188 C 543.4375 61.414062 543.003906 61.269531 557.324219 52.335938 C 570.496094 59.140625 571.96875 62.949219 582.757812 52.761719 C 592.460938 43.605469 584.371094 64.761719 597.105469 68.074219 C 602.726562 69.539062 601.476562 66.222656 610.953125 49.652344 C 622.523438 66.351562 621.0625 69.417969 627.34375 67.316406 C 627.34375 67.316406 644.984375 51.644531 646.519531 50.28125 C 653.632812 62.710938 654.382812 63.539062 668.613281 61.480469 C 681.160156 59.664062 703.53125 91.867188 720.183594 87.609375 C 727.699219 85.6875 734.417969 80.140625 742.144531 79.703125 C 746.796875 79.4375 750.238281 85.910156 754.90625 85.648438 L 778.746094 75.769531 C 795.285156 83.9375 794.273438 87.0625 812.027344 84.261719 C 812.867188 84.664062 822.566406 89.277344 822.566406 89.277344 C 824.292969 87.535156 840.574219 71.058594 847.175781 71.382812 C 858.542969 71.945312 847.46875 76.191406 842.101562 86.867188 C 861.886719 85.042969 861.058594 87.386719 880.601562 90.054688 C 880.691406 92.113281 881.1875 103.394531 882.355469 115.703125 L 894.601562 119.050781 C 889.207031 138.777344 900.0625 133.445312 907.449219 136.394531 L 890.417969 159.328125 L 910.503906 158.570312 C 903.195312 186.628906 900.265625 188.304688 904.972656 189.960938 C 906.671875 190.558594 910.449219 188.355469 910.359375 190.222656 C 910.214844 193.117188 908.296875 191.703125 881.675781 210.789062 C 886.171875 213.753906 892.808594 211.335938 897.304688 214.300781 C 914.359375 225.539062 891.839844 224.613281 882.316406 242.535156 C 897.894531 250.269531 903.191406 248.191406 902.304688 266.234375 C 888.289062 272.683594 875.34375 270.863281 886.414062 282.308594 C 901.460938 297.871094 880.695312 296.167969 876.320312 312.148438 C 873.9375 320.832031 850.0625 326.164062 847.558594 326.722656 C 845.203125 333.988281 853.355469 351.277344 828.503906 341.257812 C 804.707031 331.65625 804.863281 346.582031 799.238281 344.3125 C 725.773438 314.683594 717.578125 386.035156 703.554688 359.832031 C 702.683594 358.203125 694.691406 347.140625 693.453125 345.851562 C 692.46875 344.8125 692.15625 345.824219 675.808594 345.5 C 674.335938 343.976562 655.089844 324.0625 651.941406 334.820312 C 650.894531 338.394531 648.15625 327.46875 607.433594 340.496094 C 595.078125 324.6875 590.746094 336.050781 572.429688 328.664062 C 547.003906 318.40625 546.582031 356.855469 525.5 339.835938 C 488.316406 309.820312 479.726562 318.671875 476.777344 321.710938 C 466.925781 331.855469 466.429688 322.210938 451.511719 309.546875 C 417.941406 336.34375 415.453125 310.675781 374.082031 304.300781 C 325.929688 296.875 326.054688 310.164062 321.941406 311.847656 C 290.339844 295.832031 289.40625 302.382812 253.46875 300.617188 C 249.074219 300.398438 246.957031 308.023438 244.640625 304.675781 C 221.070312 270.644531 176.992188 302.777344 157.292969 282.402344 C 151.800781 276.71875 105.382812 314.210938 102.636719 275.21875 C 100.847656 249.800781 71.632812 277.113281 69.894531 261.25 C 69.488281 257.542969 59.496094 279.070312 54.113281 275.078125 C 11.386719 243.457031 11.847656 243.289062 4.859375 239.347656 C 9.488281 236.121094 16.816406 240.746094 21.449219 237.519531 C 24.183594 235.605469 12.792969 233.515625 24.140625 194.75 C 13.9375 176.945312 22.773438 173.621094 10.300781 157.191406 C 4.964844 150.171875 25.410156 145.703125 22.902344 142.082031 C 16.996094 133.558594 10.484375 129.777344 20.394531 127.351562 C 32.410156 124.410156 8.511719 106.523438 26.132812 98.417969 C 35.320312 94.195312 7.5625 44.535156 48.636719 58.757812 C 52.46875 60.082031 55.585938 63.285156 59.515625 64.242188 C 61.121094 64.636719 54.417969 60.171875 56.035156 60.5625 Z M 56.035156 60.5625 " fill-opacity="1" fill-rule="evenodd"/></g></g></g><g clip-path="url(#6ea8679d70)"><g clip-path="url(#83351d6582)"><g clip-path="url(#4f098273a3)"><path fill="#ffe5e5" d="M 67.253906 67.449219 C 92.660156 58.300781 92.839844 58.140625 101.351562 43.097656 L 118.675781 50.960938 C 144.410156 29.363281 150.675781 41.539062 165.097656 54.492188 C 173.84375 43.109375 177.675781 39.777344 190.226562 53.636719 C 199.25 63.589844 201.28125 22.96875 224.273438 41.722656 C 228.386719 45.082031 233.207031 47.5 237.414062 50.730469 C 244.28125 56 239.765625 46.570312 250.019531 28.355469 C 258.046875 36.234375 259.175781 34.445312 268.839844 28.234375 C 271.902344 26.269531 289.839844 45.6875 291.453125 47.429688 C 294.6875 46.394531 321.097656 37.945312 333.8125 46.066406 C 337.496094 48.414062 336.933594 45.84375 345.800781 36.203125 C 346.03125 35.953125 409.308594 46.847656 428.546875 32.953125 C 429.75 32.078125 431.792969 30.605469 444.820312 42.117188 C 452.234375 48.675781 451.785156 48.285156 459.839844 53.664062 L 465.140625 32.664062 L 478.40625 60.492188 L 486.675781 39.230469 L 502.222656 71.222656 L 508.785156 55.714844 L 523.457031 70.261719 C 539.589844 69.171875 539.171875 69.035156 553.03125 60.753906 C 565.808594 67.109375 567.242188 70.652344 577.679688 61.195312 C 587.0625 52.695312 579.265625 72.363281 591.613281 75.472656 C 597.0625 76.84375 595.84375 73.757812 604.996094 58.359375 C 616.238281 73.917969 614.832031 76.765625 620.914062 74.820312 C 620.914062 74.820312 637.980469 60.273438 639.464844 59.007812 C 646.382812 70.589844 647.113281 71.359375 660.898438 69.46875 C 673.050781 67.804688 694.792969 97.808594 710.921875 93.882812 C 718.199219 92.109375 724.703125 86.957031 732.1875 86.566406 C 736.699219 86.328125 740.046875 92.359375 744.570312 92.121094 L 767.652344 82.976562 C 783.695312 90.609375 782.722656 93.511719 799.921875 90.941406 C 800.738281 91.316406 810.144531 95.625 810.144531 95.625 C 811.8125 94.007812 827.5625 78.710938 833.960938 79.027344 C 844.976562 79.570312 834.253906 83.5 829.070312 93.421875 C 848.242188 91.761719 847.445312 93.941406 866.386719 96.464844 C 866.480469 98.375 866.980469 108.875 868.136719 120.328125 L 880.011719 123.464844 C 874.816406 141.808594 885.328125 136.871094 892.492188 139.628906 L 876.035156 160.9375 L 895.496094 160.265625 C 888.464844 186.359375 885.628906 187.914062 890.195312 189.460938 C 891.84375 190.023438 895.5 187.980469 895.414062 189.71875 C 895.28125 192.410156 893.421875 191.09375 867.660156 208.796875 C 872.023438 211.566406 878.449219 209.328125 882.808594 212.097656 C 899.359375 222.585938 877.535156 221.683594 868.339844 238.339844 C 883.453125 245.5625 888.582031 243.636719 887.757812 260.425781 C 874.183594 266.398438 861.636719 264.679688 872.386719 275.351562 C 887 289.859375 866.871094 288.234375 862.660156 303.09375 C 860.371094 311.171875 837.242188 316.085938 834.816406 316.601562 C 832.546875 323.359375 840.480469 339.460938 816.378906 330.089844 C 793.296875 321.113281 793.480469 335 788.023438 332.875 C 716.773438 305.167969 708.96875 371.539062 695.324219 347.132812 C 694.480469 345.613281 686.710938 335.308594 685.511719 334.105469 C 684.554688 333.136719 684.253906 334.078125 668.414062 333.746094 C 666.980469 332.324219 648.292969 313.757812 645.261719 323.761719 C 644.253906 327.085938 641.582031 316.917969 602.140625 328.960938 C 590.136719 314.226562 585.960938 324.789062 568.195312 317.882812 C 543.539062 308.292969 543.199219 344.066406 522.738281 328.191406 C 486.648438 300.191406 478.339844 308.40625 475.488281 311.230469 C 465.960938 320.652344 465.460938 311.675781 450.980469 299.867188 C 418.496094 324.734375 416.039062 300.847656 375.933594 294.835938 C 329.253906 287.835938 329.402344 300.203125 325.417969 301.761719 C 294.761719 286.796875 293.871094 292.890625 259.039062 291.179688 C 254.78125 290.96875 252.746094 298.058594 250.492188 294.9375 C 227.585938 263.230469 184.933594 293.042969 165.804688 274.046875 C 160.46875 268.75 115.558594 303.542969 112.820312 267.261719 C 111.039062 243.609375 82.777344 268.964844 81.0625 254.199219 C 80.664062 250.753906 71.023438 270.761719 65.800781 267.039062 C 24.332031 237.535156 24.777344 237.378906 17.996094 233.695312 C 22.480469 230.703125 29.589844 235.019531 34.070312 232.027344 C 36.71875 230.253906 25.671875 228.285156 36.597656 192.238281 C 26.675781 175.65625 35.234375 172.582031 23.113281 157.269531 C 17.929688 150.726562 37.734375 146.609375 35.296875 143.234375 C 29.558594 135.292969 23.242188 131.761719 32.839844 129.523438 C 44.476562 126.808594 21.285156 110.121094 38.34375 102.617188 C 47.238281 98.703125 20.246094 52.445312 60.078125 65.757812 C 63.792969 66.996094 66.820312 69.980469 70.628906 70.882812 C 72.1875 71.25 65.683594 67.082031 67.253906 67.449219 Z M 67.253906 67.449219 " fill-opacity="1" fill-rule="evenodd"/></g></g></g><g clip-path="url(#6337a458d9)"><g clip-path="url(#0a7db9da6d)"><g clip-path="url(#e3d52d90dc)"><path fill="#f45999" d="M 454.28125 302.71875 C 453.269531 301.792969 452.167969 300.839844 450.976562 299.867188 C 449.796875 300.769531 448.65625 301.609375 447.550781 302.386719 L 395.390625 299.824219 C 389.980469 297.816406 383.65625 295.992188 375.933594 294.839844 C 375.769531 294.8125 375.605469 294.789062 375.441406 294.765625 L 834.609375 317.347656 C 834.351562 318.539062 834.320312 319.945312 834.339844 321.410156 Z M 343.027344 293.171875 C 337.3125 293.855469 333.773438 295.222656 331.410156 296.675781 L 311.78125 295.710938 C 293.421875 288.683594 287.808594 292.59375 259.039062 291.179688 C 257.523438 291.105469 256.296875 291.949219 255.234375 292.929688 L 248.679688 292.605469 C 247.335938 291 245.933594 289.582031 244.488281 288.324219 Z M 135.679688 282.972656 C 129.875 284.34375 124.308594 284.597656 120.109375 282.207031 Z M 135.679688 282.972656 " fill-opacity="0.29" fill-rule="evenodd"/></g></g></g><g clip-path="url(#0934640c14)"><g clip-path="url(#84d287f567)"><g clip-path="url(#9013420cd3)"><path fill="#f45999" d="M 41.574219 249.75 C 39.402344 248.195312 37.375 246.742188 35.464844 245.375 L 876.730469 286.75 C 875.839844 288.101562 874.375 289.3125 872.695312 290.628906 Z M 41.574219 249.75 " fill-opacity="0.29" fill-rule="evenodd"/></g></g></g><g clip-path="url(#b8bc6bf34c)"><g clip-path="url(#ac70e4e0dd)"><g clip-path="url(#83a254871b)"><path fill="#f45999" d="M 31.71875 216.652344 C 31.777344 215.410156 31.886719 214.0625 32.050781 212.59375 L 887.757812 254.679688 C 887.835938 255.886719 887.855469 257.238281 887.816406 258.761719 Z M 31.71875 216.652344 " fill-opacity="0.29" fill-rule="evenodd"/></g></g></g><g clip-path="url(#74d76645b4)"><g clip-path="url(#39cae7f580)"><g clip-path="url(#3573eacb43)"><path fill="#f45999" d="M 32.6875 184.121094 C 32.167969 182.636719 31.808594 181.273438 31.539062 179.988281 L 886.410156 222.035156 C 884.957031 223.179688 882.972656 224.382812 880.785156 225.835938 Z M 32.6875 184.121094 " fill-opacity="0.29" fill-rule="evenodd"/></g></g></g><g clip-path="url(#f073fa1084)"><g clip-path="url(#21ae2595b3)"><g clip-path="url(#9aeac89a7b)"><path fill="#f45999" d="M 24.886719 151.175781 C 26.6875 149.796875 29.113281 148.550781 31.191406 147.410156 L 895.394531 189.914062 C 895.285156 191.132812 894.632812 191.539062 890.90625 193.769531 Z M 24.886719 151.175781 " fill-opacity="0.29" fill-rule="evenodd"/></g></g></g><g clip-path="url(#b9fb6347f6)"><g clip-path="url(#3d69da23db)"><g clip-path="url(#55ae598bfb)"><path fill="#f45999" d="M 34.019531 118.988281 C 33.449219 117.640625 32.882812 116.238281 32.46875 114.835938 L 879.460938 156.492188 L 876.429688 160.421875 Z M 895.199219 161.34375 L 882.449219 160.71875 L 895.492188 160.269531 C 895.390625 160.632812 895.296875 160.992188 895.199219 161.34375 Z M 895.199219 161.34375 " fill-opacity="0.29" fill-rule="evenodd"/></g></g></g><g clip-path="url(#d385c6e661)"><g clip-path="url(#c3ec451bbd)"><g clip-path="url(#1a60b91845)"><path fill="#f45999" d="M 38.769531 86.597656 C 38.539062 85.242188 38.3125 83.863281 38.117188 82.488281 L 879.894531 123.890625 C 879.480469 125.386719 879.175781 126.726562 878.96875 127.921875 Z M 38.769531 86.597656 " fill-opacity="0.29" fill-rule="evenodd"/></g></g></g><g clip-path="url(#39894f1297)"><g clip-path="url(#26ed2ebd88)"><g clip-path="url(#67b17a64d5)"><path fill="#f45999" d="M 91.816406 56.582031 C 93.183594 55.453125 94.34375 54.195312 95.476562 52.6875 L 683.191406 81.59375 C 685.125 83.070312 687.089844 84.554688 689.0625 85.957031 Z M 773.753906 86.046875 C 777.601562 88.078125 780.191406 89.59375 782.738281 90.566406 L 752.277344 89.066406 L 761.433594 85.441406 Z M 797.464844 91.289062 C 798.242188 91.1875 799.054688 91.074219 799.917969 90.945312 L 801.054688 91.464844 Z M 813.894531 92.097656 C 815.167969 90.941406 816.671875 89.605469 818.292969 88.238281 L 832.023438 88.914062 C 831.085938 90.101562 830.167969 91.414062 829.371094 92.859375 Z M 833.695312 93.070312 C 842.179688 92.535156 846.011719 92.996094 851.15625 93.929688 Z M 736.933594 88.3125 L 726.238281 87.785156 C 728.175781 87.136719 730.144531 86.675781 732.183594 86.570312 C 733.894531 86.480469 735.433594 87.285156 736.933594 88.3125 Z M 736.933594 88.3125 " fill-opacity="0.29" fill-rule="evenodd"/></g></g></g></svg>